<?xml version="1.0" encoding="UTF-8" standalone="no"?><!DOCTYPE svg PUBLIC "-//W3C//DTD SVG 1.1//EN" "http://www.w3.org/Graphics/SVG/1.1/DTD/svg11.dtd"><svg width="100%" height="100%" viewBox="0 0 34 41" version="1.1" xmlns="http://www.w3.org/2000/svg" xmlns:xlink="http://www.w3.org/1999/xlink" xml:space="preserve" xmlns:serif="http://www.serif.com/" style="fill-rule:evenodd;clip-rule:evenodd;stroke-linejoin:round;stroke-miterlimit:1.41421;"><g><path d="M7.885,24.615c0.569,-0.413 1.167,-0.784 1.791,-1.11c1.159,-0.608 5.44,-2.427 6.659,-2.902c0.359,0.347 0.845,0.532 1.343,0.512c1.002,-0.04 1.794,-0.897 1.754,-1.898c-0.04,-1.002 -0.897,-1.794 -1.899,-1.754c-0.903,0.036 -1.65,0.736 -1.745,1.635c-1.078,0.417 -5.377,2.208 -6.538,2.783c-0.648,0.32 -1.276,0.658 -1.859,1.006c-1.92,1.148 -3.33,2.417 -3.093,3.553c0.176,0.846 1.195,1.607 3.364,1.565c-1.092,-0.372 -2.317,-1.496 0.223,-3.39Zm9.692,-6.093c0.42,-0.016 0.779,0.316 0.796,0.736c0.017,0.42 -0.315,0.78 -0.736,0.797c-0.42,0.016 -0.78,-0.316 -0.796,-0.736c-0.017,-0.42 0.315,-0.78 0.736,-0.797Z" style="fill:#21201f;fill-rule:nonzero;"/><path d="M5.339,19.726c0.625,-0.388 1.272,-0.742 1.935,-1.06c1.674,-0.816 7.136,-3.256 10.109,-4.195c0.427,0.496 1.07,0.753 1.721,0.687c0.001,0 0.003,-0.001 0.004,-0.001c1.11,-0.109 1.933,-1.111 1.824,-2.221c-0.108,-1.11 -1.111,-1.933 -2.221,-1.824c-0.9,0.088 -1.638,0.767 -1.801,1.657c-2.492,0.762 -8.144,3.27 -10.489,4.405c-0.641,0.316 -1.258,0.637 -1.836,0.967c-2.461,1.404 -4.234,2.915 -4.118,4.225c0.109,1.201 1.167,1.989 3.616,1.749c-1.219,-0.331 -2.619,-1.957 1.256,-4.389Zm13.478,-7.435c0.465,-0.045 0.885,0.299 0.93,0.764c0.046,0.465 -0.299,0.885 -0.764,0.93c-0.464,0.046 -0.884,-0.299 -0.93,-0.764c-0.045,-0.464 0.3,-0.884 0.764,-0.93Z" style="fill:#21201f;fill-rule:nonzero;"/><path d="M17.858,38.357c-0.187,0.001 -0.372,0.001 -0.557,-0.001c-0.753,1.508 -2.312,2.545 -4.111,2.545c-2.205,0 -4.049,-1.557 -4.492,-3.631c-1.3,-0.466 -2.263,-1.111 -2.845,-1.957c-0.976,-1.428 0.268,-3.897 3.838,-5.618c0.212,1.306 0.199,2.35 0.356,3.29c0.843,-1.017 1.72,-1.27 3.143,-1.27c2.128,0 3.92,1.451 4.44,3.416c2.167,0.057 4.052,0.035 5.226,-0.066c0.092,-0.004 0.184,-0.008 0.277,-0.012c0.676,-1.06 1.863,-1.765 3.213,-1.765c0.844,0 1.535,0.187 2.167,0.653c0.29,-1.492 0.333,-2.59 0.609,-4.321c3.582,1.72 5.045,4.265 4.069,5.693c-0.612,0.888 -1.644,1.548 -3.046,2.022c-0.125,1.989 -1.779,3.566 -3.799,3.566c-1.665,0 -3.082,-1.072 -3.598,-2.563l-1.561,0.019l-3.329,0Zm7.465,1.001c-0.887,-0.401 -1.46,-1.288 -1.46,-2.262c0,-1.363 1.121,-2.484 2.484,-2.484c1.362,0 2.483,1.121 2.483,2.484c0,0.353 -0.075,0.703 -0.221,1.025c-0.562,1.24 -2.045,1.799 -3.286,1.237Zm-14.844,-4.273c0.677,-1.495 2.441,-2.16 3.936,-1.483c1.496,0.677 2.16,2.44 1.483,3.936c-0.676,1.495 -2.44,2.16 -3.936,1.483c-1.495,-0.676 -2.16,-2.44 -1.483,-3.936Z" style="fill:#21201f;"/><path d="M9.104,32.008c-0.05,-0.366 0.24,-0.891 0.1,-1.461c-0.322,-1.308 -0.431,-1.75 -0.629,-2.558c0.877,-0.674 1.374,-0.941 2.241,-1.608c0.033,0.753 0.141,3.168 0.173,3.865c0.022,0.51 0.467,0.937 1.087,0.99c0.662,0.058 2.182,0.093 3.089,0.093c3.145,0.026 8.454,-0.311 10.53,-0.766c0.439,-0.076 0.802,-0.389 0.942,-0.812c2.236,-8.331 1.121,-18.422 0.027,-21.338c-0.207,-0.45 -0.668,-0.73 -1.163,-0.708c-0.08,0.001 -0.16,0.007 -0.239,0.018c-5.67,0.878 -14.567,2.502 -18.402,3.941c-0.301,0.104 -0.549,0.323 -0.69,0.608c-0.121,0.263 -0.105,0.569 0.042,0.818c0.107,0.174 1.13,2.011 1.235,2.197c-0.847,0.47 -1.16,0.644 -1.887,1.048c-0.788,-2.005 -2.484,-4.717 -3.296,-6.302c-0.216,-0.424 -0.252,-0.918 -0.099,-1.369c0.158,-0.451 0.491,-0.819 0.923,-1.023c5.256,-2.432 14.399,-5.192 22.227,-6.706c0.311,-0.052 0.221,-0.028 0.333,-0.03c0.75,-0.003 1.423,0.478 1.662,1.189c1.568,4.511 3.445,16.88 1.596,29.918l-0.009,-0.004c-0.234,1.466 -0.12,2.286 -1.273,2.962c-0.535,-0.394 -1.307,-0.515 -2.022,-0.515c-1.142,0 -1.991,0.596 -2.563,1.494c-0.078,0.002 -4.442,0.113 -6.276,0.066c-0.44,-1.664 -1.801,-2.891 -3.602,-2.891c-1.205,0 -2.572,0.685 -3.285,1.546c-0.504,-0.617 -0.772,-2.662 -0.772,-2.662Zm8.869,-25.501c0.465,-0.139 0.74,-0.628 0.618,-1.098c-0.096,-0.377 -0.437,-0.643 -0.826,-0.643c-0.081,0 -0.162,0.012 -0.24,0.035l-7.33,2.104c-0.387,0.109 -0.656,0.464 -0.658,0.866c0.001,0.076 0.01,0.153 0.028,0.228c0.094,0.379 0.438,0.647 0.828,0.647c0.08,0 0.159,-0.011 0.236,-0.033l7.344,-2.106Zm3.584,-1.028c0.465,-0.136 0.743,-0.622 0.624,-1.092c-0.096,-0.379 -0.439,-0.647 -0.83,-0.647c-0.079,0 -0.158,0.011 -0.234,0.033c-0.465,0.136 -0.742,0.624 -0.62,1.093c0.094,0.378 0.437,0.645 0.826,0.645c0.079,0 0.158,-0.011 0.234,-0.032Z" style="fill:#21201f;fill-rule:nonzero;"/></g></svg>