<?xml version="1.0" encoding="UTF-8" standalone="no"?><!DOCTYPE svg PUBLIC "-//W3C//DTD SVG 1.1//EN" "http://www.w3.org/Graphics/SVG/1.1/DTD/svg11.dtd"><svg width="100%" height="100%" viewBox="0 0 41 31" version="1.1" xmlns="http://www.w3.org/2000/svg" xmlns:xlink="http://www.w3.org/1999/xlink" xml:space="preserve" xmlns:serif="http://www.serif.com/" style="fill-rule:evenodd;clip-rule:evenodd;stroke-linejoin:round;stroke-miterlimit:1.41421;"><g><path d="M20.779,18.901c-0.132,0 -0.264,-0.026 -0.388,-0.078l-19,-8c-0.37,-0.156 -0.612,-0.52 -0.612,-0.922c0,-0.402 0.242,-0.766 0.612,-0.922l19,-8c0.248,-0.104 0.528,-0.104 0.776,0l18.999,8c0.37,0.156 0.612,0.52 0.612,0.922c0,0.402 -0.242,0.766 -0.612,0.922l-18.999,8c-0.124,0.052 -0.256,0.078 -0.388,0.078Zm-16.424,-9l16.424,6.914l16.424,-6.914l-16.424,-6.914l-16.424,6.914Z" style="fill-rule:nonzero;"/><path d="M20.779,24.901c-0.132,0 -0.264,-0.026 -0.388,-0.078l-19,-8c-0.508,-0.214 -0.748,-0.8 -0.534,-1.31c0.214,-0.51 0.8,-0.748 1.31,-0.534l18.612,7.836l18.611,-7.836c0.508,-0.214 1.096,0.024 1.31,0.534c0.214,0.51 -0.024,1.096 -0.534,1.31l-18.999,8c-0.124,0.052 -0.256,0.078 -0.388,0.078Z" style="fill-rule:nonzero;"/><path d="M20.779,30.901c-0.132,0 -0.264,-0.026 -0.388,-0.078l-19,-8c-0.508,-0.214 -0.748,-0.8 -0.534,-1.31c0.214,-0.51 0.8,-0.748 1.31,-0.534l18.612,7.836l18.611,-7.836c0.508,-0.214 1.096,0.024 1.31,0.534c0.214,0.51 -0.024,1.096 -0.534,1.31l-18.999,8c-0.124,0.052 -0.256,0.078 -0.388,0.078Z" style="fill-rule:nonzero;"/></g></svg>