<?xml version="1.0" encoding="UTF-8" standalone="no"?>
<!DOCTYPE svg PUBLIC "-//W3C//DTD SVG 1.1//EN" "http://www.w3.org/Graphics/SVG/1.1/DTD/svg11.dtd">
<svg width="100%" height="100%" viewBox="0 0 35 31" version="1.1" xmlns="http://www.w3.org/2000/svg" xmlns:xlink="http://www.w3.org/1999/xlink" xml:space="preserve" xmlns:serif="http://www.serif.com/" style="fill-rule:evenodd;clip-rule:evenodd;stroke-linejoin:round;stroke-miterlimit:1.41421;">
    <g transform="matrix(1,0,0,1,137.288,-543.461)">
        <g transform="matrix(1,0,0,1,-456.357,156.701)">
            <g>
                <g transform="matrix(1,0,0,1,318.069,385.76)">
                    <path d="M34.068,32C35.135,32 36,31.234 36,30.289L36,2.711C36,1.766 35.135,1 34.068,1L2.932,1C1.865,1 1,1.766 1,2.711L1,30.289C1,31.234 1.865,32 2.932,32L34.068,32Z" style="fill:white;fill-rule:nonzero;"/>
                </g>
                <g id="cia" transform="matrix(1,0,0,1,318.069,385.76)">
                    <path d="M28.79,16.739C28.79,15.994 28.723,15.279 28.599,14.591L18.71,14.591L18.71,18.653L24.361,18.653C24.125,19.951 23.368,21.097 22.266,21.822L22.266,24.457L25.659,24.457C27.645,22.628 28.79,19.936 28.79,16.739Z" style="fill:rgb(62,130,241);"/>
                </g>
                <g id="cib" transform="matrix(1,0,0,1,318.069,385.76)">
                    <path d="M18.71,27C21.545,27 23.922,26.06 25.659,24.456L22.266,21.821C21.326,22.451 20.123,22.823 18.71,22.823C15.975,22.823 13.66,20.976 12.835,18.494L9.327,18.494L9.327,21.214C11.105,24.757 14.746,27.002 18.71,27Z" style="fill:rgb(50,167,83);"/>
                </g>
                <g id="cic" transform="matrix(1,0,0,1,318.069,385.76)">
                    <path d="M12.835,18.495C12.619,17.852 12.508,17.178 12.506,16.5C12.506,15.808 12.625,15.135 12.835,14.505L12.835,11.785L9.327,11.785C8.616,13.202 8.21,14.806 8.21,16.5C8.21,18.194 8.616,19.798 9.327,21.215L12.835,18.495Z" style="fill:rgb(249,187,0);"/>
                </g>
                <g id="cid" transform="matrix(1,0,0,1,318.069,385.76)">
                    <path d="M18.71,10.176C20.252,10.176 21.636,10.706 22.724,11.746L25.736,8.734C23.917,7.04 21.54,6 18.71,6C14.746,5.998 11.106,8.243 9.327,11.785L12.835,14.505C13.66,12.023 15.975,10.176 18.71,10.176Z" style="fill:rgb(231,65,51);"/>
                </g>
            </g>
        </g>
    </g>
</svg>
