<?xml version="1.0" encoding="UTF-8" standalone="no"?><!DOCTYPE svg PUBLIC "-//W3C//DTD SVG 1.1//EN" "http://www.w3.org/Graphics/SVG/1.1/DTD/svg11.dtd"><svg width="100%" height="100%" viewBox="0 0 39 41" version="1.1" xmlns="http://www.w3.org/2000/svg" xmlns:xlink="http://www.w3.org/1999/xlink" xml:space="preserve" xmlns:serif="http://www.serif.com/" style="fill-rule:evenodd;clip-rule:evenodd;stroke-linejoin:round;stroke-miterlimit:1.41421;"><g><path d="M32.534,6.759c-3.777,-3.778 -8.799,-5.858 -14.14,-5.858c-6.188,0 -11.949,2.85 -15.705,7.613l0,-2.613c0,-0.552 -0.448,-1 -0.999,-1c-0.552,0 -1,0.448 -1,1l0,5.943c0,0.458 0.31,0.856 0.754,0.97c0.194,0.05 0.39,0.038 0.567,-0.022l5.706,-1.944c0.522,-0.178 0.802,-0.746 0.624,-1.268c-0.178,-0.522 -0.746,-0.802 -1.268,-0.624l-2.98,1.016c3.376,-4.415 8.639,-7.067 14.303,-7.067c9.925,0 17.998,8.073 17.998,17.998c0,9.925 -8.073,17.998 -17.998,17.998c-6.631,0 -12.707,-3.629 -15.855,-9.473c-0.262,-0.486 -0.867,-0.668 -1.353,-0.406c-0.486,0.262 -0.668,0.868 -0.406,1.354c3.497,6.491 10.249,10.525 17.616,10.525c5.341,0 10.363,-2.08 14.14,-5.857c3.778,-3.778 5.858,-8.799 5.858,-14.141c0,-5.341 -2.08,-10.363 -5.858,-14.14l-0.004,-0.004Z" style="fill-rule:nonzero;"/><path d="M18.394,25.401c-0.168,0 -0.334,-0.042 -0.486,-0.126l-8.999,-5c-0.482,-0.268 -0.656,-0.876 -0.388,-1.359c0.268,-0.484 0.876,-0.656 1.36,-0.388l8.479,4.709l10.497,-6.679c0.466,-0.296 1.084,-0.16 1.38,0.306c0.296,0.466 0.16,1.084 -0.306,1.38l-10.999,6.999c-0.164,0.104 -0.35,0.156 -0.536,0.156l-0.002,0.002Z" style="fill-rule:nonzero;"/></g></svg>