<?xml version="1.0" encoding="UTF-8" standalone="no"?><!DOCTYPE svg PUBLIC "-//W3C//DTD SVG 1.1//EN" "http://www.w3.org/Graphics/SVG/1.1/DTD/svg11.dtd"><svg width="100%" height="100%" viewBox="0 0 41 41" version="1.1" xmlns="http://www.w3.org/2000/svg" xmlns:xlink="http://www.w3.org/1999/xlink" xml:space="preserve" xmlns:serif="http://www.serif.com/" style="fill-rule:evenodd;clip-rule:evenodd;stroke-linejoin:round;stroke-miterlimit:1.41421;"><g><path d="M35.07,6.758c-3.777,-3.777 -8.801,-5.857 -14.144,-5.857c-5.344,0 -10.365,2.08 -14.144,5.857c-3.779,3.777 -5.857,8.801 -5.857,14.142c0,5.341 2.08,10.365 5.857,14.144c3.777,3.779 8.8,5.857 14.144,5.857c5.343,0 10.364,-2.08 14.144,-5.857c3.779,-3.777 5.857,-8.801 5.857,-14.144c0,-5.343 -2.08,-10.365 -5.857,-14.142Zm-14.144,32.04c-9.868,0 -17.896,-8.028 -17.896,-17.896c0,-9.868 8.028,-17.896 17.896,-17.896c9.868,0 17.895,8.028 17.895,17.896c0,9.868 -8.027,17.896 -17.895,17.896Z" style="fill-rule:nonzero;"/><g><path d="M20.926,14.375c-0.757,0 -1.37,0.379 -1.37,0.846c0,0 0,14.637 0,17.765c0,0.437 0.913,0.757 1.37,0.757c0.456,0 1.37,-0.32 1.37,-0.757c0,-3.197 0,-17.765 0,-17.765c0,-0.467 -0.614,-0.846 -1.37,-0.846Z" style="fill-rule:nonzero;"/><path d="M20.926,8.059c-0.757,0 -1.37,0.471 -1.37,1.052l0,2.106c0,0.581 0.613,1.052 1.37,1.052c0.756,0 1.37,-0.471 1.37,-1.052l0,-2.106c0,-0.581 -0.614,-1.052 -1.37,-1.052Z" style="fill-rule:nonzero;"/></g></g></svg>