<svg width="38" height="36" viewBox="0 0 38 36" fill="none" xmlns="http://www.w3.org/2000/svg">
<rect width="18" height="19" fill="black" fill-opacity="0" transform="translate(38) scale(2) rotate(90)"/>
<path d="M1.5922 35.7495L13.9118 24.4892C16.5737 27.0262 20.0545 28.4207 23.75 28.4207C27.5557 28.4207 31.1353 26.9429 33.8257 24.258C36.5161 21.5732 38 18.0055 38 14.2104C38 10.4152 36.518 6.84561 33.8257 4.16269C31.1334 1.47977 27.5557 0 23.75 0C19.9443 0 16.3647 1.47788 13.6743 4.16269C10.9839 6.8475 9.5 10.4152 9.5 14.2104C9.5 17.4806 10.6001 20.5804 12.6255 23.0928L0.3078 34.3531C0.1026 34.5407 0 34.7946 0 35.0522C0 35.2815 0.0816994 35.5108 0.248901 35.6926C0.604202 36.0792 1.2046 36.1038 1.5903 35.7514L1.5922 35.7495ZM23.75 1.89282C30.5596 1.89282 36.1 7.41781 36.1 14.2085C36.1 20.9991 30.5596 26.5241 23.75 26.5241C16.9404 26.5241 11.4 20.9991 11.4 14.2085C11.4 7.41781 16.9404 1.89282 23.75 1.89282Z" fill="white"/>
</svg>
