<svg width="20" height="32" viewBox="0 0 20 32" fill="none" xmlns="http://www.w3.org/2000/svg">
<path d="M17.874 14.876C18.084 15.084 18.188 15.324 18.188 15.594C18.188 15.866 18.084 16.1059 17.874 16.3119L3.31201 30.8739C3.10401 31.0839 2.86599 31.188 2.59399 31.188C2.32399 31.188 2.08398 31.0839 1.87598 30.8739L0.312012 29.314C0.104012 29.104 0 28.864 0 28.594C0 28.324 0.104012 28.084 0.312012 27.876L12.594 15.594L0.312012 3.31396C0.104012 3.10397 0 2.86599 0 2.59399C0 2.32199 0.104012 2.08398 0.312012 1.87598L1.87598 0.313965C2.08398 0.103966 2.32399 -0.00012207 2.59399 -0.00012207C2.86599 -0.00012207 3.10401 0.103966 3.31201 0.313965L17.874 14.876Z" fill="#74889A"/>
</svg>
