<svg width="22" height="18" viewBox="0 0 22 18" fill="none" xmlns="http://www.w3.org/2000/svg">
<rect width="22" height="18" fill="black" fill-opacity="0"/>
<path d="M18.6385 11.2729V17.035C18.6385 17.5698 18.2298 18 17.7218 18H13.2908C13.0387 18 12.8324 17.7829 12.8324 17.5175V13.014C12.8324 12.7486 12.6261 12.5314 12.374 12.5314H9.62372C9.37161 12.5314 9.16534 12.7486 9.16534 13.014V17.5175C9.16534 17.7829 8.95907 18 8.70696 18H4.27595C3.76791 18 3.35919 17.5698 3.35919 17.035V11.2729C3.35919 11.1281 3.42031 10.9914 3.52726 10.8989L10.7086 4.67441C10.8766 4.52966 11.1211 4.52966 11.293 4.67441L18.4743 10.8989C18.5774 10.9914 18.6385 11.1281 18.6385 11.2729ZM21.8319 8.82408L18.6385 6.05361V0.48453C18.6385 0.219145 18.4323 0.0020106 18.1802 0.0020106H16.041C15.7889 0.0020106 15.5827 0.219145 15.5827 0.48453V3.40378L12.1639 0.440299C11.4878 -0.146766 10.5099 -0.146766 9.83381 0.440299L0.165808 8.82408C-0.0290037 8.99296 -0.0557425 9.29856 0.104691 9.50363L1.07875 10.7501C1.23918 10.9552 1.52949 10.9834 1.7243 10.8145L10.7086 3.0258C10.8766 2.88105 11.1211 2.88105 11.293 3.0258L20.2772 10.8145C20.4721 10.9834 20.7624 10.9552 20.9228 10.7501L21.8969 9.50363C22.0573 9.29454 22.0267 8.99296 21.8319 8.82408Z" fill="#7B7B7B"/>
</svg>
