<svg width="16" height="16" viewBox="0 0 16 16" fill="none" xmlns="http://www.w3.org/2000/svg">
<path d="M16 12.6364C16 12.8415 15.9622 13.1084 15.8866 13.4378C15.8102 13.7673 15.7309 14.0262 15.6473 14.216C15.4888 14.5949 15.0262 14.9964 14.2611 15.4204C13.5491 15.8065 12.8444 16 12.1477 16C11.9433 16 11.7426 15.9869 11.5455 15.96C11.3484 15.9338 11.1309 15.8865 10.8917 15.8182C10.6531 15.7498 10.4757 15.6953 10.3578 15.6538C10.2407 15.6116 10.0298 15.5345 9.72729 15.4204C9.42401 15.3069 9.23856 15.2385 9.1702 15.216C8.42765 14.9505 7.7651 14.6364 7.18183 14.2727C6.21964 13.6742 5.21964 12.856 4.18182 11.8182C3.144 10.7804 2.32582 9.78035 1.72728 8.81817C1.36364 8.2349 1.04946 7.57235 0.784003 6.8298C0.761458 6.76144 0.69309 6.57599 0.579635 6.27271C0.465453 5.97017 0.388374 5.75926 0.346192 5.64216C0.304737 5.52435 0.250182 5.34688 0.181818 5.10834C0.113455 4.86907 0.0661766 4.65162 0.0399947 4.45453C0.0130856 4.25744 0 4.05671 0 3.85234C0 3.15562 0.193453 2.45091 0.579635 1.7389C1.00364 0.973813 1.40509 0.511263 1.784 0.352717C1.97382 0.26908 2.23274 0.189778 2.56219 0.113415C2.89165 0.0377779 3.15855 0 3.36364 0C3.46982 0 3.54982 0.0116339 3.60219 0.0341797C3.73892 0.079998 3.93892 0.36799 4.20437 0.898172C4.28801 1.04217 4.40146 1.2465 4.54546 1.51123C4.68946 1.77669 4.82182 2.01745 4.94328 2.23345C5.064 2.44872 5.18183 2.65162 5.29528 2.84071C5.31856 2.87126 5.38472 2.9658 5.49381 3.12507C5.60363 3.28434 5.68511 3.41816 5.7382 3.5287C5.79129 3.63852 5.81819 3.74616 5.81819 3.85234C5.81819 4.00362 5.70982 4.19344 5.49381 4.42035C5.27854 4.64799 5.04364 4.85598 4.78982 5.04579C4.53601 5.23489 4.3011 5.43562 4.0851 5.64798C3.8691 5.85962 3.76146 6.03416 3.76146 6.17089C3.76146 6.23852 3.78037 6.32362 3.81819 6.42617C3.856 6.52871 3.888 6.60654 3.91491 6.6589C3.94109 6.71199 3.99418 6.8029 4.07418 6.93163C4.15345 7.06036 4.1971 7.13235 4.20437 7.14763C4.78037 8.18545 5.43928 9.07563 6.18183 9.81817C6.92437 10.5607 7.81455 11.2196 8.85237 11.7956C8.86765 11.8029 8.93964 11.8465 9.06837 11.9258C9.1971 12.0058 9.28801 12.0589 9.3411 12.0851C9.39346 12.112 9.47129 12.144 9.57383 12.1818C9.67638 12.2196 9.76148 12.2385 9.82911 12.2385C9.96584 12.2385 10.1404 12.1309 10.352 11.9149C10.5644 11.6989 10.7651 11.464 10.9542 11.2102C11.144 10.9564 11.352 10.7215 11.5796 10.5062C11.8066 10.2902 11.9964 10.1818 12.1477 10.1818C12.2538 10.1818 12.3615 10.2087 12.4713 10.2618C12.5818 10.3149 12.7157 10.3964 12.8749 10.5062C13.0342 10.6153 13.1287 10.6814 13.1593 10.7047C13.3484 10.8182 13.5513 10.936 13.7666 11.0567C13.9826 11.1782 14.2233 11.3105 14.4887 11.4545C14.7535 11.5985 14.9578 11.712 15.1018 11.7956C15.632 12.0611 15.92 12.2611 15.9658 12.3978C15.9884 12.4502 16 12.5302 16 12.6364Z" fill="#74889A"/>
</svg>
