<?xml version="1.0" encoding="UTF-8" standalone="no"?><!DOCTYPE svg PUBLIC "-//W3C//DTD SVG 1.1//EN" "http://www.w3.org/Graphics/SVG/1.1/DTD/svg11.dtd"><svg width="100%" height="100%" viewBox="0 0 41 36" version="1.1" xmlns="http://www.w3.org/2000/svg" xmlns:xlink="http://www.w3.org/1999/xlink" xml:space="preserve" xmlns:serif="http://www.serif.com/" style="fill-rule:evenodd;clip-rule:evenodd;stroke-linejoin:round;stroke-miterlimit:1.41421;"><g><path d="M25.239,15.765c0,-1.557 1.267,-2.823 2.823,-2.823c1.556,0 2.823,1.266 2.823,2.823c0,1.556 -1.267,2.822 -2.823,2.822c-1.556,0 -2.823,-1.266 -2.823,-2.822Zm3.764,0c0,-0.52 -0.422,-0.941 -0.941,-0.941c-0.519,0 -0.941,0.421 -0.941,0.941c0,0.519 0.422,0.941 0.941,0.941c0.519,0 0.941,-0.422 0.941,-0.941Z" style="fill-rule:nonzero;"/><path d="M17.712,15.765c0,-1.557 1.266,-2.823 2.823,-2.823c1.556,0 2.822,1.266 2.822,2.823c0,1.556 -1.266,2.822 -2.822,2.822c-1.557,0 -2.823,-1.266 -2.823,-2.822Zm3.763,0c0,-0.52 -0.421,-0.941 -0.94,-0.941c-0.52,0 -0.941,0.421 -0.941,0.941c0,0.519 0.421,0.941 0.941,0.941c0.519,0 0.94,-0.422 0.94,-0.941Z" style="fill-rule:nonzero;"/><path d="M10.184,15.765c0,-1.557 1.267,-2.823 2.823,-2.823c1.556,0 2.823,1.266 2.823,2.823c0,1.556 -1.267,2.822 -2.823,2.822c-1.556,0 -2.823,-1.266 -2.823,-2.822Zm3.764,0c0,-0.52 -0.422,-0.941 -0.941,-0.941c-0.519,0 -0.941,0.421 -0.941,0.941c0,0.519 0.422,0.941 0.941,0.941c0.519,0 0.941,-0.422 0.941,-0.941Z" style="fill-rule:nonzero;"/><path d="M1.065,35.796c-0.474,0 -0.889,-0.316 -1.015,-0.773c-0.126,-0.457 0.067,-0.941 0.474,-1.183c3.56,-2.135 5.035,-5.24 5.56,-6.693c-3.87,-2.962 -6.072,-7.061 -6.072,-11.351c0,-2.166 0.543,-4.265 1.617,-6.24c1.023,-1.882 2.484,-3.568 4.339,-5.013c3.762,-2.926 8.749,-4.539 14.044,-4.539c5.295,0 10.282,1.613 14.044,4.539c1.855,1.442 3.316,3.129 4.339,5.013c1.074,1.973 1.617,4.071 1.617,6.24c0,2.168 -0.543,4.265 -1.617,6.24c-1.023,1.882 -2.484,3.568 -4.339,5.012c-3.762,2.927 -8.749,4.539 -14.044,4.539c-2.175,0 -4.31,-0.271 -6.35,-0.81c-0.903,0.602 -2.591,1.669 -4.608,2.673c-3.133,1.558 -5.819,2.348 -7.987,2.348l-0.002,-0.002Zm18.947,-33.684c-9.867,0 -17.895,6.139 -17.895,13.684c0,3.821 2.116,7.499 5.802,10.088c0.362,0.255 0.527,0.708 0.413,1.135c-0.246,0.918 -1.084,3.438 -3.326,5.869c2.741,-0.96 5.692,-2.625 7.871,-4.124c0.259,-0.179 0.583,-0.231 0.887,-0.145c1.995,0.57 4.098,0.861 6.248,0.861c9.867,0 17.894,-6.139 17.894,-13.684c0,-7.545 -8.027,-13.684 -17.894,-13.684Z" style="fill-rule:nonzero;"/></g></svg>