<svg width="25" height="20" viewBox="0 0 25 20" fill="none" xmlns="http://www.w3.org/2000/svg">
<rect width="24.6154" height="20" fill="black" fill-opacity="0"/>
<path d="M6.15385 3.26923V1.34615C6.15385 0.921298 6.49822 0.576923 6.92308 0.576923H23.8462C24.271 0.576923 24.6154 0.921298 24.6154 1.34615V3.26923C24.6154 3.69409 24.271 4.03846 23.8462 4.03846H6.92308C6.49822 4.03846 6.15385 3.69409 6.15385 3.26923ZM6.92308 11.7308H23.8462C24.271 11.7308 24.6154 11.3864 24.6154 10.9615V9.03846C24.6154 8.61361 24.271 8.26923 23.8462 8.26923H6.92308C6.49822 8.26923 6.15385 8.61361 6.15385 9.03846V10.9615C6.15385 11.3864 6.49822 11.7308 6.92308 11.7308ZM6.92308 19.4231H23.8462C24.271 19.4231 24.6154 19.0787 24.6154 18.6538V16.7308C24.6154 16.3059 24.271 15.9615 23.8462 15.9615H6.92308C6.49822 15.9615 6.15385 16.3059 6.15385 16.7308V18.6538C6.15385 19.0787 6.49822 19.4231 6.92308 19.4231ZM0.769231 4.61538H3.84615C4.27101 4.61538 4.61538 4.27101 4.61538 3.84615V0.769231C4.61538 0.344375 4.27101 0 3.84615 0H0.769231C0.344375 0 0 0.344375 0 0.769231V3.84615C0 4.27101 0.344375 4.61538 0.769231 4.61538ZM0.769231 12.3077H3.84615C4.27101 12.3077 4.61538 11.9633 4.61538 11.5385V8.46154C4.61538 8.03668 4.27101 7.69231 3.84615 7.69231H0.769231C0.344375 7.69231 0 8.03668 0 8.46154V11.5385C0 11.9633 0.344375 12.3077 0.769231 12.3077ZM0.769231 20H3.84615C4.27101 20 4.61538 19.6556 4.61538 19.2308V16.1538C4.61538 15.729 4.27101 15.3846 3.84615 15.3846H0.769231C0.344375 15.3846 0 15.729 0 16.1538V19.2308C0 19.6556 0.344375 20 0.769231 20Z" fill="#C4C4C4"/>
</svg>
