<?xml version="1.0" encoding="UTF-8" standalone="no"?>
<!DOCTYPE svg PUBLIC "-//W3C//DTD SVG 1.1//EN" "http://www.w3.org/Graphics/SVG/1.1/DTD/svg11.dtd">
<svg width="100%" height="100%" viewBox="0 0 40 40" version="1.1" xmlns="http://www.w3.org/2000/svg" xmlns:xlink="http://www.w3.org/1999/xlink" xml:space="preserve" xmlns:serif="http://www.serif.com/" style="fill-rule:evenodd;clip-rule:evenodd;stroke-linejoin:round;stroke-miterlimit:1.41421;">
    <g transform="matrix(1,0,0,1,-976.543,-2199.76)">
        <g transform="matrix(0.714286,0,0,0.714286,976.543,2199.76)">
            <path d="M8,40C3.589,40 0,43.589 0,48C0,52.411 3.589,56 8,56C12.411,56 16,52.411 16,48C16,43.589 12.411,40 8,40ZM8,54C4.691,54 2,51.309 2,48C2,44.691 4.691,42 8,42C11.309,42 14,44.691 14,48C14,51.309 11.309,54 8,54Z" style="fill-rule:nonzero;"/>
        </g>
        <g transform="matrix(0.714286,0,0,0.714286,976.543,2199.76)">
            <path d="M28,40C23.589,40 20,43.589 20,48C20,52.411 23.589,56 28,56C32.411,56 36,52.411 36,48C36,43.589 32.411,40 28,40ZM28,54C24.691,54 22,51.309 22,48C22,44.691 24.691,42 28,42C31.309,42 34,44.691 34,48C34,51.309 31.309,54 28,54Z" style="fill-rule:nonzero;"/>
        </g>
        <g transform="matrix(0.714286,0,0,0.714286,976.543,2199.76)">
            <path d="M48,40C43.589,40 40,43.589 40,48C40,52.411 43.589,56 48,56C52.411,56 56,52.411 56,48C56,43.589 52.411,40 48,40ZM48,54C44.691,54 42,51.309 42,48C42,44.691 44.691,42 48,42C51.309,42 54,44.691 54,48C54,51.309 51.309,54 48,54Z" style="fill-rule:nonzero;"/>
        </g>
        <g transform="matrix(0.714286,0,0,0.714286,976.543,2199.76)">
            <path d="M8,20C3.589,20 0,23.589 0,28C0,32.411 3.589,36 8,36C12.411,36 16,32.411 16,28C16,23.589 12.411,20 8,20ZM8,34C4.691,34 2,31.309 2,28C2,24.691 4.691,22 8,22C11.309,22 14,24.691 14,28C14,31.309 11.309,34 8,34Z" style="fill-rule:nonzero;"/>
        </g>
        <g transform="matrix(0.714286,0,0,0.714286,976.543,2199.76)">
            <path d="M28,20C23.589,20 20,23.589 20,28C20,32.411 23.589,36 28,36C32.411,36 36,32.411 36,28C36,23.589 32.411,20 28,20ZM28,34C24.691,34 22,31.309 22,28C22,24.691 24.691,22 28,22C31.309,22 34,24.691 34,28C34,31.309 31.309,34 28,34Z" style="fill-rule:nonzero;"/>
        </g>
        <g transform="matrix(0.714286,0,0,0.714286,976.543,2199.76)">
            <path d="M48,20C43.589,20 40,23.589 40,28C40,32.411 43.589,36 48,36C52.411,36 56,32.411 56,28C56,23.589 52.411,20 48,20ZM48,34C44.691,34 42,31.309 42,28C42,24.691 44.691,22 48,22C51.309,22 54,24.691 54,28C54,31.309 51.309,34 48,34Z" style="fill-rule:nonzero;"/>
        </g>
        <g transform="matrix(0.714286,0,0,0.714286,976.543,2199.76)">
            <path d="M8,0C3.589,0 0,3.589 0,8C0,12.411 3.589,16 8,16C12.411,16 16,12.411 16,8C16,3.589 12.411,0 8,0ZM8,14C4.691,14 2,11.309 2,8C2,4.691 4.691,2 8,2C11.309,2 14,4.691 14,8C14,11.309 11.309,14 8,14Z" style="fill-rule:nonzero;"/>
        </g>
        <g transform="matrix(0.714286,0,0,0.714286,976.543,2199.76)">
            <path d="M28,0C23.589,0 20,3.589 20,8C20,12.411 23.589,16 28,16C32.411,16 36,12.411 36,8C36,3.589 32.411,0 28,0ZM28,14C24.691,14 22,11.309 22,8C22,4.691 24.691,2 28,2C31.309,2 34,4.691 34,8C34,11.309 31.309,14 28,14Z" style="fill-rule:nonzero;"/>
        </g>
        <g transform="matrix(0.714286,0,0,0.714286,976.543,2199.76)">
            <path d="M48,16C52.411,16 56,12.411 56,8C56,3.589 52.411,0 48,0C43.589,0 40,3.589 40,8C40,12.411 43.589,16 48,16ZM48,2C51.309,2 54,4.691 54,8C54,11.309 51.309,14 48,14C44.691,14 42,11.309 42,8C42,4.691 44.691,2 48,2Z" style="fill-rule:nonzero;"/>
        </g>
    </g>
</svg>
