<?xml version="1.0" encoding="UTF-8" standalone="no"?><!DOCTYPE svg PUBLIC "-//W3C//DTD SVG 1.1//EN" "http://www.w3.org/Graphics/SVG/1.1/DTD/svg11.dtd"><svg width="100%" height="100%" viewBox="0 0 41 38" version="1.1" xmlns="http://www.w3.org/2000/svg" xmlns:xlink="http://www.w3.org/1999/xlink" xml:space="preserve" xmlns:serif="http://www.serif.com/" style="fill-rule:evenodd;clip-rule:evenodd;stroke-linejoin:round;stroke-miterlimit:1.41421;"><g><path d="M37.828,0.291l-18.947,0c-1.741,0 -3.158,1.416 -3.158,3.157l0,6.316c0,0.581 0.472,1.053 1.053,1.053c0.581,0 1.052,-0.472 1.052,-1.053l0,-6.316c0,-0.581 0.472,-1.052 1.053,-1.052l15.924,0l-8.088,3.467c-1.442,0.619 -2.573,2.333 -2.573,3.901l0,20l-5.263,0c-0.581,0 -1.053,-0.471 -1.053,-1.052l0,-6.316c0,-0.581 -0.471,-1.053 -1.052,-1.053c-0.581,0 -1.053,0.472 -1.053,1.053l0,6.316c0,1.741 1.417,3.158 3.158,3.158l5.263,0l0,3.157c0,0.912 0.379,1.687 1.042,2.123c0.367,0.24 0.792,0.362 1.24,0.362c0.365,0 0.746,-0.08 1.12,-0.24l10.868,-4.657c1.442,-0.619 2.572,-2.333 2.572,-3.903l0,-25.264c0,-1.741 -1.416,-3.157 -3.158,-3.157Zm1.053,28.421c0,0.739 -0.619,1.675 -1.297,1.966l-10.867,4.657c-0.202,0.086 -0.335,0.08 -0.373,0.057c-0.038,-0.024 -0.094,-0.146 -0.094,-0.365l0,-25.263c0,-0.739 0.618,-1.676 1.296,-1.966l11.228,-4.813c0.069,0.139 0.107,0.297 0.107,0.463l0,25.264Z" style="fill-rule:nonzero;"/><path d="M18.574,18.158l-6.316,-6.316c-0.411,-0.41 -1.078,-0.41 -1.488,0c-0.411,0.411 -0.411,1.078 0,1.489l4.517,4.518l-13.248,0c-0.581,0 -1.053,0.471 -1.053,1.052c0,0.581 0.472,1.053 1.053,1.053l13.248,0l-4.517,4.518c-0.411,0.41 -0.411,1.078 0,1.488c0.206,0.207 0.475,0.308 0.745,0.308c0.269,0 0.539,-0.103 0.745,-0.308l6.316,-6.315c0.41,-0.411 0.41,-1.078 0,-1.489l-0.002,0.002Z" style="fill-rule:nonzero;"/></g></svg>