<?xml version="1.0" encoding="UTF-8" standalone="no"?><!DOCTYPE svg PUBLIC "-//W3C//DTD SVG 1.1//EN" "http://www.w3.org/Graphics/SVG/1.1/DTD/svg11.dtd"><svg width="100%" height="100%" viewBox="0 0 41 38" version="1.1" xmlns="http://www.w3.org/2000/svg" xmlns:xlink="http://www.w3.org/1999/xlink" xml:space="preserve" xmlns:serif="http://www.serif.com/" style="fill-rule:evenodd;clip-rule:evenodd;stroke-linejoin:round;stroke-miterlimit:1.41421;"><g><path d="M32.449,37.79c-0.182,0 -0.364,-0.044 -0.531,-0.135l-11.692,-6.376l-11.691,6.376c-0.373,0.204 -0.829,0.175 -1.176,-0.071c-0.346,-0.247 -0.522,-0.669 -0.451,-1.089l2.129,-12.769l-8.484,-8.485c-0.294,-0.293 -0.4,-0.729 -0.274,-1.125c0.127,-0.395 0.465,-0.688 0.876,-0.757l12.776,-2.129l5.302,-10.605c0.189,-0.376 0.573,-0.613 0.993,-0.613c0.42,0 0.807,0.237 0.994,0.613l5.302,10.605l12.776,2.129c0.411,0.069 0.749,0.36 0.876,0.757c0.126,0.398 0.022,0.832 -0.274,1.125l-8.484,8.485l2.129,12.769c0.069,0.42 -0.107,0.842 -0.451,1.089c-0.192,0.135 -0.418,0.206 -0.645,0.206Zm-12.223,-8.889c0.183,0 0.367,0.045 0.532,0.136l10.22,5.573l-1.847,-11.082c-0.06,-0.354 0.056,-0.716 0.311,-0.969l7.363,-7.363l-11.205,-1.866c-0.351,-0.058 -0.651,-0.282 -0.811,-0.6l-4.563,-9.125l-4.562,9.125c-0.16,0.318 -0.46,0.54 -0.811,0.6l-11.205,1.866l7.363,7.363c0.253,0.253 0.369,0.613 0.311,0.969l-1.847,11.082l10.22,-5.573c0.167,-0.091 0.349,-0.136 0.531,-0.136Z" style="fill-rule:nonzero;"/><g><path d="M14.877,17.534c-0.285,0 -0.537,-0.206 -0.586,-0.497c-0.053,-0.323 0.166,-0.63 0.489,-0.683l2.079,-0.346l0.459,-0.918c0.146,-0.294 0.504,-0.413 0.797,-0.266c0.294,0.146 0.413,0.504 0.267,0.797l-0.595,1.189c-0.085,0.17 -0.246,0.289 -0.434,0.321l-2.377,0.396c-0.033,0.006 -0.067,0.008 -0.099,0.008l0,-0.001Z" style="fill-rule:nonzero;"/><path d="M11.312,19.516c-0.152,0 -0.304,-0.059 -0.42,-0.174l-1.189,-1.189c-0.157,-0.157 -0.214,-0.39 -0.146,-0.601c0.067,-0.212 0.248,-0.369 0.468,-0.406l2.377,-0.395c0.325,-0.054 0.63,0.165 0.684,0.488c0.053,0.323 -0.165,0.63 -0.489,0.684l-1.238,0.207l0.372,0.372c0.232,0.231 0.232,0.608 0,0.84c-0.117,0.117 -0.269,0.174 -0.421,0.174l0.002,0Z" style="fill-rule:nonzero;"/><path d="M25.973,25.459c-0.285,0 -0.537,-0.205 -0.586,-0.497l-0.396,-2.377c-0.032,-0.189 0.03,-0.383 0.166,-0.518l1.189,-1.189c0.232,-0.232 0.609,-0.232 0.841,0c0.231,0.232 0.231,0.608 0,0.84l-0.973,0.973l0.346,2.075c0.054,0.323 -0.165,0.63 -0.488,0.684c-0.034,0.006 -0.066,0.008 -0.099,0.008l0,0.001Z" style="fill-rule:nonzero;"/><path d="M26.766,30.214c-0.098,0 -0.195,-0.024 -0.284,-0.072l-3.567,-1.945c-0.287,-0.157 -0.394,-0.518 -0.237,-0.806c0.157,-0.288 0.518,-0.395 0.806,-0.238l2.495,1.361l-0.196,-1.173c-0.054,-0.323 0.165,-0.63 0.488,-0.684c0.324,-0.053 0.63,0.166 0.684,0.489l0.396,2.377c0.036,0.225 -0.057,0.451 -0.242,0.583c-0.102,0.072 -0.223,0.11 -0.344,0.11l0.001,-0.002Z" style="fill-rule:nonzero;"/><path d="M14.681,24.27c-0.032,0 -0.065,-0.002 -0.098,-0.008c-0.324,-0.053 -0.543,-0.36 -0.489,-0.683l0.147,-0.887l-0.972,-0.973c-0.232,-0.231 -0.232,-0.608 0,-0.84c0.232,-0.232 0.609,-0.232 0.84,0l1.189,1.189c0.136,0.135 0.197,0.328 0.167,0.518l-0.199,1.189c-0.049,0.291 -0.301,0.497 -0.586,0.497l0.001,-0.002Z" style="fill-rule:nonzero;"/><path d="M13.69,30.214c-0.121,0 -0.243,-0.037 -0.345,-0.11c-0.185,-0.132 -0.279,-0.358 -0.241,-0.583l0.594,-3.566c0.054,-0.323 0.36,-0.542 0.684,-0.489c0.323,0.054 0.542,0.36 0.488,0.684l-0.393,2.362l1.306,-0.712c0.288,-0.157 0.649,-0.051 0.806,0.236c0.157,0.288 0.051,0.649 -0.238,0.806l-2.377,1.297c-0.089,0.049 -0.187,0.073 -0.284,0.073l0,0.002Z" style="fill-rule:nonzero;"/><path d="M18.445,27.62c-0.211,0 -0.415,-0.111 -0.522,-0.31c-0.157,-0.288 -0.051,-0.649 0.238,-0.806l1.783,-0.972c0.177,-0.097 0.392,-0.097 0.569,0l0.594,0.324c0.288,0.157 0.395,0.518 0.238,0.806c-0.157,0.288 -0.518,0.395 -0.806,0.238l-0.31,-0.169l-1.499,0.818c-0.09,0.049 -0.188,0.072 -0.284,0.072l-0.001,-0.001Z" style="fill-rule:nonzero;"/><path d="M29.143,19.516c-0.152,0 -0.304,-0.059 -0.421,-0.174c-0.231,-0.232 -0.231,-0.609 0,-0.84l0.372,-0.372l-2.427,-0.405c-0.323,-0.053 -0.542,-0.36 -0.489,-0.683c0.054,-0.323 0.361,-0.542 0.684,-0.489l3.566,0.595c0.22,0.036 0.401,0.192 0.469,0.405c0.067,0.213 0.011,0.445 -0.147,0.601l-1.188,1.189c-0.117,0.117 -0.269,0.175 -0.421,0.175l0.002,-0.002Z" style="fill-rule:nonzero;"/><path d="M24.389,17.337c-0.032,0 -0.065,-0.003 -0.098,-0.009l-1.189,-0.198c-0.188,-0.031 -0.348,-0.151 -0.434,-0.321l-1.189,-2.378c-0.146,-0.293 -0.027,-0.65 0.267,-0.797c0.293,-0.148 0.65,-0.028 0.797,0.266l1.054,2.106l0.89,0.149c0.323,0.054 0.542,0.36 0.489,0.684c-0.049,0.29 -0.301,0.496 -0.587,0.496l0,0.002Z" style="fill-rule:nonzero;"/><path d="M19.039,13.572c-0.089,0 -0.179,-0.02 -0.265,-0.063c-0.294,-0.146 -0.413,-0.504 -0.266,-0.798l1.188,-2.377c0.101,-0.201 0.307,-0.328 0.532,-0.328c0.224,0 0.431,0.127 0.531,0.328l0.594,1.189c0.147,0.293 0.028,0.65 -0.266,0.797c-0.293,0.148 -0.65,0.028 -0.797,-0.266l-0.063,-0.126l-0.658,1.315c-0.104,0.208 -0.314,0.329 -0.532,0.329l0.002,0Z" style="fill-rule:nonzero;"/></g></g></svg>