<?xml version="1.0" encoding="UTF-8" standalone="no"?><!DOCTYPE svg PUBLIC "-//W3C//DTD SVG 1.1//EN" "http://www.w3.org/Graphics/SVG/1.1/DTD/svg11.dtd"><svg width="100%" height="100%" viewBox="0 0 41 37" version="1.1" xmlns="http://www.w3.org/2000/svg" xmlns:xlink="http://www.w3.org/1999/xlink" xml:space="preserve" xmlns:serif="http://www.serif.com/" style="fill-rule:evenodd;clip-rule:evenodd;stroke-linejoin:round;stroke-miterlimit:1.41421;"><path d="M39.974,21.294l-17.66,-19.517c-0.548,-0.606 -1.288,-0.94 -2.084,-0.94c-0.794,0 -1.534,0.334 -2.084,0.94l-17.659,19.517c-0.37,0.41 -0.338,1.042 0.07,1.412c0.192,0.174 0.432,0.258 0.67,0.258c0.272,0 0.544,-0.11 0.742,-0.33l4.258,-4.706l0,16.037c0,1.654 1.346,3 3.001,3l22.001,0c1.654,0 3,-1.346 3,-3l0,-16.037l4.258,4.706c0.37,0.41 1.002,0.442 1.413,0.07c0.41,-0.372 0.442,-1.002 0.07,-1.412l0.004,0.002Zm-15.743,13.671l-8.001,0l0,-9c0,-0.552 0.448,-1.001 1,-1.001l6,0c0.553,0 1.001,0.449 1.001,1.001l0,9Zm8,-1c0,0.552 -0.448,1 -1,1l-5,0l0,-9c0,-1.655 -1.346,-3.001 -3.001,-3.001l-6,0c-1.654,0 -3,1.346 -3,3.001l0,9l-5,0c-0.552,0 -1,-0.448 -1,-1l0,-18.247l11.4,-12.601c0.164,-0.182 0.378,-0.282 0.6,-0.282c0.222,0 0.436,0.1 0.6,0.282l11.401,12.601l0,18.247Z" style="fill-rule:nonzero;"/></svg>