<svg width="22" height="20" viewBox="0 0 22 20" fill="none" xmlns="http://www.w3.org/2000/svg">
<rect width="22" height="20" fill="black" fill-opacity="0"/>
<path d="M12.7188 0H20.9688C21.5383 0 22 0.479687 22 1.07143V8.21429C22 8.80603 21.5383 9.28571 20.9688 9.28571H12.7188C12.1492 9.28571 11.6875 8.80603 11.6875 8.21429V1.07143C11.6875 0.479687 12.1492 0 12.7188 0ZM9.28125 0H1.03125C0.461699 0 0 0.479687 0 1.07143V8.21429C0 8.80603 0.461699 9.28571 1.03125 9.28571H9.28125C9.8508 9.28571 10.3125 8.80603 10.3125 8.21429V1.07143C10.3125 0.479687 9.8508 0 9.28125 0ZM0 11.7857V18.9286C0 19.5203 0.461699 20 1.03125 20H9.28125C9.8508 20 10.3125 19.5203 10.3125 18.9286V11.7857C10.3125 11.194 9.8508 10.7143 9.28125 10.7143H1.03125C0.461699 10.7143 0 11.194 0 11.7857ZM12.7188 20H20.9688C21.5383 20 22 19.5203 22 18.9286V11.7857C22 11.194 21.5383 10.7143 20.9688 10.7143H12.7188C12.1492 10.7143 11.6875 11.194 11.6875 11.7857V18.9286C11.6875 19.5203 12.1492 20 12.7188 20Z" fill="#C4C4C4"/>
</svg>
