<svg width="31" height="35" viewBox="0 0 31 35" fill="none" xmlns="http://www.w3.org/2000/svg">
<rect width="31" height="35" fill="black" fill-opacity="0"/>
<path d="M30.0272 4.50769L26.4371 0.961064C25.8142 0.34571 24.9694 4.55052e-06 24.0885 0L12.1786 0C10.3442 0 8.85714 1.46904 8.85714 3.28125V6.5625H3.32143C1.48703 6.5625 0 8.03154 0 9.84375V31.7188C0 33.531 1.48703 35 3.32143 35H18.8214C20.6558 35 22.1429 33.531 22.1429 31.7188V28.4375H27.6786C29.513 28.4375 31 26.9685 31 25.1562V6.82787C31 5.95763 30.6501 5.12304 30.0272 4.50769ZM18.4062 31.7188H3.73661C3.62649 31.7188 3.52089 31.6755 3.44303 31.5986C3.36517 31.5217 3.32143 31.4174 3.32143 31.3086V10.2539C3.32143 10.1451 3.36517 10.0408 3.44303 9.96388C3.52089 9.88696 3.62649 9.84375 3.73661 9.84375H8.85714V25.1562C8.85714 26.9685 10.3442 28.4375 12.1786 28.4375H18.8214V31.3086C18.8214 31.4174 18.7777 31.5217 18.6998 31.5986C18.622 31.6755 18.5164 31.7188 18.4062 31.7188ZM27.2634 25.1562H12.5938C12.4836 25.1562 12.378 25.113 12.3002 25.0361C12.2223 24.9592 12.1786 24.8549 12.1786 24.7461V3.69141C12.1786 3.58263 12.2223 3.4783 12.3002 3.40138C12.378 3.32446 12.4836 3.28125 12.5938 3.28125H19.9286V9.29688C19.9286 10.203 20.6721 10.9375 21.5893 10.9375H27.6786V24.7461C27.6786 24.8549 27.6348 24.9592 27.557 25.0361C27.4791 25.113 27.3735 25.1562 27.2634 25.1562ZM27.6786 7.65625H23.25V3.28125H23.9165C24.0266 3.28125 24.1322 3.32445 24.2101 3.40136L27.557 6.70776C27.5955 6.74586 27.6261 6.79108 27.647 6.84084C27.6678 6.89061 27.6786 6.94395 27.6786 6.99781V7.65625Z" fill="#BBBBBB"/>
</svg>
