<svg width="12" height="12" viewBox="0 0 12 12" fill="none" xmlns="http://www.w3.org/2000/svg">
<path d="M0.908203 9.45802C0.396484 9.96925 0.396484 10.7981 0.908203 11.3094C1.41895 11.8206 2.24805 11.8206 2.75977 11.3094L6 8.06963L9.23926 11.3094C9.75098 11.8206 10.5801 11.8206 11.0908 11.3094C11.6025 10.7981 11.6025 9.96925 11.0908 9.45802L7.85059 6.21818L11.0908 2.97835C11.6016 2.46712 11.6016 1.63825 11.0908 1.12702C10.5791 0.615783 9.75 0.615783 9.23926 1.12702L6 4.36674L2.75977 1.12702C2.24902 0.615783 1.41992 0.615783 0.908203 1.12702C0.397461 1.63825 0.397461 2.46712 0.908203 2.97835L4.14844 6.21818L0.908203 9.45802Z" fill="white"/>
</svg>
