<svg width="25" height="20" viewBox="0 0 25 20" fill="none" xmlns="http://www.w3.org/2000/svg">
<rect width="24.9894" height="20" fill="black" fill-opacity="0"/>
<path d="M21.8969 12.5H9.17893L9.46288 13.75H21.108C21.7762 13.75 22.2714 14.3086 22.1234 14.8953L21.884 15.8436C22.6949 16.198 23.254 16.9464 23.254 17.8125C23.254 19.0313 22.1469 20.0173 20.7888 19.9998C19.4949 19.983 18.4308 19.0376 18.3959 17.8729C18.3768 17.2367 18.6599 16.6601 19.1249 16.25H10.0294C10.4796 16.6471 10.7593 17.2002 10.7593 17.8125C10.7593 19.0552 9.60843 20.0559 8.21397 19.9976C6.97578 19.9458 5.96878 19.045 5.90371 17.9305C5.85347 17.0698 6.35647 16.3112 7.12069 15.9154L4.07306 2.5H1.04123C0.466166 2.5 0 2.08027 0 1.5625V0.9375C0 0.419726 0.466166 0 1.04123 0H5.48939C5.98401 0 6.41035 0.31332 6.50949 0.749609L6.90715 2.5H23.9478C24.6159 2.5 25.1112 3.05863 24.9631 3.64527L22.9122 11.7703C22.8045 12.1971 22.383 12.5 21.8969 12.5ZM17.4852 7.5H15.6184V5.15625C15.6184 4.89738 15.3853 4.6875 15.0978 4.6875H14.0566C13.769 4.6875 13.5359 4.89738 13.5359 5.15625V7.5H11.6692C11.2053 7.5 10.973 8.00492 11.301 8.30019L14.209 10.9185C14.4123 11.1016 14.742 11.1016 14.9453 10.9185L17.8533 8.30019C18.1813 8.00492 17.949 7.5 17.4852 7.5Z" fill="#4F4F4F"/>
</svg>
